<svg width="18" height="19" viewBox="0 0 18 19" fill="none" xmlns="http://www.w3.org/2000/svg">
<path d="M12.5562 12.0477L12.1007 12.5272C12.1007 12.5272 11.0181 13.667 8.06312 10.5559C5.10812 7.44484 6.1907 6.30507 6.1907 6.30507L6.47752 6.00311C7.18407 5.25924 7.25068 4.06497 6.63424 3.1931L5.37326 1.40961C4.61028 0.3305 3.13596 0.187949 2.26145 1.10864L0.691849 2.76114C0.258229 3.21766 -0.0323482 3.80945 0.00288757 4.46594C0.093035 6.14546 0.810715 9.75905 4.81536 13.9752C9.06214 18.4462 13.0468 18.6239 14.6763 18.4631C15.1917 18.4122 15.6399 18.1343 16.0011 17.754L17.4217 16.2584C18.3806 15.2489 18.1102 13.5182 16.8833 12.812L14.9728 11.7123C14.1672 11.2486 13.1858 11.3848 12.5562 12.0477Z" fill="#014EE6"/>
</svg>
