<svg width="12" height="7" viewBox="0 0 12 7" fill="none" xmlns="http://www.w3.org/2000/svg">
<path d="M0.699952 0.274999C0.883286 0.0916658 1.11662 -4.57148e-07 1.39995 -4.44763e-07C1.68328 -4.32379e-07 1.91662 0.0916659 2.09995 0.274999L5.99995 4.175L9.89995 0.275C10.0833 0.0916662 10.3166 -5.50035e-08 10.6 -4.26186e-08C10.8833 -3.02337e-08 11.1166 0.0916663 11.3 0.275C11.4833 0.458333 11.575 0.691666 11.575 0.974999C11.575 1.25833 11.4833 1.49167 11.3 1.675L6.69995 6.275C6.59995 6.375 6.49162 6.446 6.37495 6.488C6.25828 6.52933 6.13328 6.55 5.99995 6.55C5.86662 6.55 5.74162 6.52933 5.62495 6.488C5.50828 6.446 5.39995 6.375 5.29995 6.275L0.699952 1.675C0.516619 1.49167 0.424951 1.25833 0.424951 0.974999C0.424951 0.691666 0.516619 0.458332 0.699952 0.274999Z" fill="white"/>
</svg>
