<svg width="62" height="69" viewBox="0 0 62 69" fill="none" xmlns="http://www.w3.org/2000/svg">
<path d="M0.214111 42.2498C0.214111 35.5936 1.79893 29.6664 4.96857 24.4682C8.13821 19.2699 11.6248 14.8958 15.4284 11.3458C19.232 7.79585 22.7186 5.0858 25.8882 3.21572L30.6427 0.410583V12.9624C30.6427 15.3079 31.4351 17.1621 33.0199 18.5251C34.6047 19.888 36.3797 20.5695 38.3449 20.5695C39.4226 20.5695 40.4527 20.3476 41.4353 19.9039C42.4179 19.4601 43.3212 18.7311 44.1453 17.7168L45.8569 15.6249C50.4212 18.2874 54.098 21.98 56.8873 26.7028C59.6766 31.4255 61.0712 36.6079 61.0712 42.2498C61.0712 47.8284 59.7083 52.9157 56.9824 57.5117C54.2565 62.1076 50.6748 65.7369 46.2373 68.3994C47.315 66.8779 48.1549 65.2139 48.7572 63.4072C49.3594 61.6005 49.6605 59.6829 49.6605 57.6543C49.6605 55.1186 49.1851 52.7255 48.2342 50.4751C47.2833 48.2246 45.9203 46.2119 44.1453 44.4369L30.6427 31.2195L17.2351 44.4369C15.3967 46.2753 14.002 48.3038 13.0512 50.5226C12.1003 52.7413 11.6248 55.1186 11.6248 57.6543C11.6248 59.6829 11.9259 61.6005 12.5282 63.4072C13.1304 65.2139 13.9704 66.8779 15.048 68.3994C10.6105 65.7369 7.02884 62.1076 4.30295 57.5117C1.57706 52.9157 0.214111 47.8284 0.214111 42.2498ZM30.6427 41.8695L38.7252 49.7619C39.8029 50.8396 40.627 52.044 41.1976 53.3753C41.7681 54.7065 42.0534 56.1329 42.0534 57.6543C42.0534 60.7605 40.944 63.4072 38.7252 65.5942C36.5065 67.7813 33.8123 68.8748 30.6427 68.8748C27.473 68.8748 24.7788 67.7813 22.5601 65.5942C20.3413 63.4072 19.232 60.7605 19.232 57.6543C19.232 56.1963 19.5172 54.7858 20.0878 53.4228C20.6583 52.0599 21.4824 50.8396 22.5601 49.7619L30.6427 41.8695Z" fill="url(#paint0_linear_1_373)"/>
<defs>
<linearGradient id="paint0_linear_1_373" x1="56.7922" y1="68.8748" x2="-8.08728" y2="51.7872" gradientUnits="userSpaceOnUse">
<stop stop-color="#FC8026"/>
<stop offset="1" stop-color="#014EE6"/>
</linearGradient>
</defs>
</svg>
