<svg width="64" height="64" viewBox="0 0 64 64" fill="none" xmlns="http://www.w3.org/2000/svg">
<g filter="url(#filter0_d_655_193)">
<rect x="6.11438" y="3" width="51.7127" height="52" rx="25.8564" fill="#014EE6" shape-rendering="crispEdges"/>
<path fill-rule="evenodd" clip-rule="evenodd" d="M36.6393 19H36.7076C37.5913 19 38.3041 19 38.8779 19.0545C39.4696 19.1108 39.9851 19.23 40.4487 19.514C40.9181 19.8017 41.3127 20.1963 41.6003 20.6657C41.8844 21.1293 42.0036 21.6448 42.0598 22.2365C42.1144 22.8103 42.1144 23.523 42.1144 24.4068V24.4752C42.1144 25.0559 42.1144 25.5405 42.077 25.9341C42.0379 26.3456 41.953 26.7291 41.7374 27.0808C41.5265 27.425 41.2371 27.7144 40.8929 27.9254C40.5411 28.1409 40.1576 28.2258 39.7461 28.2649C39.3525 28.3024 38.8679 28.3023 38.2872 28.3023L37.1823 28.3023C36.3465 28.3024 35.6495 28.3024 35.0963 28.228C34.5123 28.1495 33.985 27.9768 33.5613 27.5531C33.1376 27.1294 32.9649 26.6021 32.8864 26.0181C32.812 25.4648 32.812 24.7679 32.8121 23.9321L32.8121 22.8272C32.812 22.2465 32.812 21.7619 32.8495 21.3682C32.8886 20.9567 32.9735 20.5733 33.189 20.2215C33.4 19.8773 33.6894 19.5879 34.0336 19.377C34.3853 19.1614 34.7688 19.0765 35.1803 19.0374C35.5739 19 36.0586 19 36.6393 19ZM37.4632 24.814C36.9838 24.814 36.744 24.814 36.5748 24.6939C36.5151 24.6515 36.4629 24.5993 36.4205 24.5396C36.3004 24.3703 36.3004 24.1306 36.3004 23.6512C36.3004 23.1717 36.3004 22.932 36.4205 22.7627C36.4629 22.703 36.5151 22.6509 36.5748 22.6085C36.744 22.4884 36.9838 22.4884 37.4632 22.4884C37.9427 22.4884 38.1824 22.4884 38.3517 22.6085C38.4114 22.6509 38.4635 22.703 38.5059 22.7627C38.626 22.932 38.626 23.1717 38.626 23.6512C38.626 24.1306 38.626 24.3703 38.5059 24.5396C38.4635 24.5993 38.4114 24.6515 38.3517 24.6939C38.1824 24.814 37.9427 24.814 37.4632 24.814Z" fill="white"/>
<path fill-rule="evenodd" clip-rule="evenodd" d="M30.1952 19.377C29.8435 19.1614 29.46 19.0765 29.0485 19.0374C28.6548 19 28.1702 19 27.5895 19H27.5212C26.6375 19 25.9247 19 25.3509 19.0545C24.7592 19.1108 24.2437 19.23 23.7801 19.514C23.3107 19.8017 22.9161 20.1963 22.6284 20.6657C22.3443 21.1293 22.2252 21.6448 22.1689 22.2365C22.1144 22.8103 22.1144 23.523 22.1144 24.4068V24.4751C22.1144 25.0558 22.1144 25.5405 22.1518 25.9341C22.1909 26.3456 22.2758 26.7291 22.4913 27.0808C22.7023 27.425 22.9917 27.7144 23.3359 27.9254C23.6876 28.1409 24.0711 28.2258 24.4826 28.2649C24.8762 28.3024 25.3608 28.3023 25.9415 28.3023L27.0465 28.3023C27.8823 28.3024 28.5792 28.3024 29.1325 28.228C29.7165 28.1495 30.2438 27.9768 30.6674 27.5531C31.0911 27.1294 31.2639 26.6021 31.3424 26.0181C31.4168 25.4648 31.4167 24.7679 31.4167 23.9321L31.4167 22.8273C31.4167 22.2466 31.4167 21.7618 31.3793 21.3682C31.3402 20.9567 31.2553 20.5733 31.0397 20.2215C30.8288 19.8773 30.5394 19.5879 30.1952 19.377ZM25.8771 24.6939C26.0464 24.814 26.2861 24.814 26.7655 24.814C27.245 24.814 27.4847 24.814 27.654 24.6939C27.7137 24.6515 27.7659 24.5993 27.8082 24.5396C27.9283 24.3703 27.9283 24.1306 27.9283 23.6512C27.9283 23.1717 27.9283 22.932 27.8082 22.7627C27.7659 22.703 27.7137 22.6509 27.654 22.6085C27.4847 22.4884 27.245 22.4884 26.7655 22.4884C26.2861 22.4884 26.0464 22.4884 25.8771 22.6085C25.8174 22.6509 25.7652 22.703 25.7229 22.7627C25.6028 22.932 25.6028 23.1717 25.6028 23.6512C25.6028 24.1306 25.6028 24.3703 25.7229 24.5396C25.7652 24.5993 25.8174 24.6515 25.8771 24.6939Z" fill="white"/>
<path fill-rule="evenodd" clip-rule="evenodd" d="M29.1325 29.772C29.7165 29.8505 30.2438 30.0232 30.6674 30.4469C31.0911 30.8706 31.2639 31.3979 31.3424 31.9819C31.4168 32.5352 31.4167 33.2321 31.4167 34.0679L31.4167 35.1728C31.4167 35.7535 31.4167 36.2382 31.3793 36.6318C31.3402 37.0433 31.2553 37.4267 31.0397 37.7785C30.8288 38.1227 30.5394 38.4121 30.1952 38.623C29.8435 38.8386 29.46 38.9235 29.0485 38.9626C28.6549 39 28.1702 39 27.5895 39H27.5212C26.6374 39 25.9247 39 25.3509 38.9455C24.7592 38.8892 24.2437 38.77 23.7801 38.486C23.3107 38.1983 22.9161 37.8037 22.6284 37.3343C22.3443 36.8707 22.2252 36.3552 22.1689 35.7635C22.1144 35.1897 22.1144 34.477 22.1144 33.5932V33.5249C22.1144 32.9442 22.1144 32.4595 22.1518 32.0659C22.1909 31.6544 22.2758 31.2709 22.4913 30.9192C22.7023 30.575 22.9917 30.2856 23.3359 30.0746C23.6876 29.8591 24.0711 29.7742 24.4826 29.7351C24.8762 29.6976 25.3609 29.6977 25.9415 29.6977L27.0465 29.6977C27.8823 29.6976 28.5792 29.6976 29.1325 29.772ZM26.7655 35.5116C26.2861 35.5116 26.0464 35.5116 25.8771 35.3915C25.8174 35.3491 25.7652 35.297 25.7229 35.2373C25.6028 35.068 25.6028 34.8283 25.6028 34.3488C25.6028 33.8694 25.6028 33.6297 25.7229 33.4604C25.7652 33.4007 25.8174 33.3485 25.8771 33.3061C26.0464 33.186 26.2861 33.186 26.7655 33.186C27.245 33.186 27.4847 33.186 27.654 33.3061C27.7137 33.3485 27.7659 33.4007 27.8082 33.4604C27.9283 33.6297 27.9283 33.8694 27.9283 34.3488C27.9283 34.8283 27.9283 35.068 27.8082 35.2373C27.7659 35.297 27.7137 35.3491 27.654 35.3915C27.4847 35.5116 27.245 35.5116 26.7655 35.5116Z" fill="white"/>
<path d="M32.8121 33.6155V33.6512H34.2074C34.2074 32.9834 34.2082 32.5351 34.243 32.1933C34.2766 31.8632 34.336 31.7107 34.4034 31.6098C34.4882 31.4828 34.5972 31.3738 34.7242 31.289C34.8251 31.2216 34.9776 31.1622 35.3077 31.1286C35.6495 31.0939 36.0978 31.093 36.7655 31.093H38.626V29.6977H36.7299C36.107 29.6977 35.5873 29.6976 35.1665 29.7404C34.7261 29.7853 34.3173 29.8827 33.949 30.1288C33.6696 30.3154 33.4298 30.5553 33.2432 30.8346C32.997 31.203 32.8996 31.6117 32.8548 32.0521C32.812 32.4729 32.812 32.9926 32.8121 33.6155Z" fill="white"/>
<path d="M42.1144 35.5351V35.5116H40.719C40.719 35.9546 40.7187 36.2519 40.7029 36.4821C40.6877 36.706 40.6602 36.8151 40.6305 36.8868C40.5125 37.1718 40.2861 37.3981 40.0012 37.5161C39.9295 37.5459 39.8204 37.5733 39.5965 37.5886C39.3663 37.6043 39.069 37.6046 38.626 37.6046H36.7655V39H38.6495C39.063 39 39.4081 39 39.6915 38.9807C39.9864 38.9606 40.2651 38.9172 40.5352 38.8053C41.162 38.5456 41.66 38.0476 41.9197 37.4208C42.0315 37.1507 42.0749 36.8721 42.0951 36.5771C42.1144 36.2937 42.1144 35.9486 42.1144 35.5351Z" fill="white"/>
<path d="M34.2074 38.3023C34.2074 38.6876 33.895 39 33.5097 39C33.1244 39 32.8121 38.6876 32.8121 38.3023V35.5116H34.2074V38.3023Z" fill="white"/>
<path d="M41.4167 29.6977C41.0314 29.6977 40.719 30.01 40.719 30.3953V33.6512H42.1144V30.3953C42.1144 30.01 41.802 29.6977 41.4167 29.6977Z" fill="white"/>
<path d="M36.1905 33.6173C36.1144 33.8011 36.1144 34.0341 36.1144 34.5C36.1144 34.9659 36.1144 35.1989 36.1905 35.3827C36.292 35.6277 36.4867 35.8224 36.7317 35.9239C36.9155 36 37.1484 36 37.6144 36C38.0803 36 38.3133 36 38.4971 35.9239C38.7421 35.8224 38.9368 35.6277 39.0383 35.3827C39.1144 35.1989 39.1144 34.9659 39.1144 34.5C39.1144 34.0341 39.1144 33.8011 39.0383 33.6173C38.9368 33.3723 38.7421 33.1776 38.4971 33.0761C38.3133 33 38.0803 33 37.6144 33C37.1484 33 36.9155 33 36.7317 33.0761C36.4867 33.1776 36.292 33.3723 36.1905 33.6173Z" fill="white"/>
</g>
<defs>
<filter id="filter0_d_655_193" x="0.11438" y="0" width="63.7127" height="64" filterUnits="userSpaceOnUse" color-interpolation-filters="sRGB">
<feFlood flood-opacity="0" result="BackgroundImageFix"/>
<feColorMatrix in="SourceAlpha" type="matrix" values="0 0 0 0 0 0 0 0 0 0 0 0 0 0 0 0 0 0 127 0" result="hardAlpha"/>
<feOffset dy="3"/>
<feGaussianBlur stdDeviation="3"/>
<feComposite in2="hardAlpha" operator="out"/>
<feColorMatrix type="matrix" values="0 0 0 0 0 0 0 0 0 0 0 0 0 0 0 0 0 0 0.14 0"/>
<feBlend mode="normal" in2="BackgroundImageFix" result="effect1_dropShadow_655_193"/>
<feBlend mode="normal" in="SourceGraphic" in2="effect1_dropShadow_655_193" result="shape"/>
</filter>
</defs>
</svg>
