<svg width="24" height="24" viewBox="0 0 24 24" fill="none" xmlns="http://www.w3.org/2000/svg">
<mask id="mask0_1_322" style="mask-type:alpha" maskUnits="userSpaceOnUse" x="0" y="0" width="24" height="24">
<rect width="24" height="24" fill="#D9D9D9"/>
</mask>
<g mask="url(#mask0_1_322)">
<path d="M9.275 17.3C9.09167 17.1167 9 16.8834 9 16.6C9 16.3167 9.09167 16.0834 9.275 15.9L13.175 12L9.275 8.10005C9.09167 7.91672 9 7.68338 9 7.40005C9 7.11672 9.09167 6.88338 9.275 6.70005C9.45833 6.51672 9.69167 6.42505 9.975 6.42505C10.2583 6.42505 10.4917 6.51671 10.675 6.70005L15.275 11.3C15.375 11.4 15.446 11.5084 15.488 11.625C15.5293 11.7417 15.55 11.8667 15.55 12C15.55 12.1334 15.5293 12.2584 15.488 12.375C15.446 12.4917 15.375 12.6 15.275 12.7L10.675 17.3C10.4917 17.4834 10.2583 17.575 9.975 17.575C9.69167 17.575 9.45833 17.4834 9.275 17.3Z" fill="#014EE6"/>
</g>
</svg>
