<svg width="40" height="40" viewBox="0 0 20 20" fill="none" xmlns="http://www.w3.org/2000/svg">
<path d="M17.3517 5.61665L13.3929 2.05375C12.2651 1.03868 11.7012 0.531143 11.0092 0.265625L11 3.00011C11 5.35713 11 6.53564 11.7322 7.26787C12.4645 8.00011 13.643 8.00011 16 8.00011H19.5801C19.2175 7.29588 18.5684 6.71164 17.3517 5.61665Z" fill="#014EE6"/>
<path fill-rule="evenodd" clip-rule="evenodd" d="M8 20H12C15.7712 20 17.6569 20 18.8284 18.8284C20 17.6569 20 15.7712 20 12V11.5629C20 10.6901 20 10.0344 19.9574 9.50011H16L15.9051 9.50011C14.808 9.5002 13.8385 9.50027 13.0569 9.3952C12.2098 9.28131 11.3628 9.0198 10.6716 8.32853C9.9803 7.63726 9.7188 6.79028 9.60491 5.94316C9.49983 5.16164 9.49991 4.19207 9.5 3.09497L9.50923 0.260566C9.50951 0.178128 9.51656 0.0965928 9.53001 0.0166612C9.1214 -4.26546e-07 8.6358 0 8.02979 0C4.23869 0 2.34315 0 1.17157 1.17157C0 2.34315 0 4.22876 0 8V12C0 15.7712 0 17.6569 1.17157 18.8284C2.34315 20 4.22876 20 8 20ZM7.01296 10.9528C6.72446 10.6824 6.27554 10.6824 5.98704 10.9528L3.98704 12.8278C3.68486 13.1111 3.66955 13.5858 3.95285 13.888C4.23615 14.1901 4.71077 14.2055 5.01296 13.9222L5.75 13.2312L5.75 16.5C5.75 16.9142 6.08579 17.25 6.5 17.25C6.91421 17.25 7.25 16.9142 7.25 16.5L7.25 13.2312L7.98704 13.9222C8.28923 14.2055 8.76385 14.1901 9.04715 13.888C9.33045 13.5858 9.31514 13.1111 9.01296 12.8278L7.01296 10.9528Z" fill="#014EE6"/>
</svg>
