<svg width="7" height="12" viewBox="0 0 7 12" fill="none" xmlns="http://www.w3.org/2000/svg">
<path d="M6.725 0.699952C6.90833 0.883286 7 1.11662 7 1.39995C7 1.68328 6.90833 1.91662 6.725 2.09995L2.825 5.99995L6.725 9.89995C6.90833 10.0833 7 10.3166 7 10.6C7 10.8833 6.90833 11.1166 6.725 11.3C6.54167 11.4833 6.30833 11.575 6.025 11.575C5.74167 11.575 5.50833 11.4833 5.325 11.3L0.725001 6.69995C0.625001 6.59995 0.554 6.49162 0.512001 6.37495C0.470667 6.25828 0.45 6.13328 0.45 5.99995C0.45 5.86662 0.470667 5.74162 0.512001 5.62495C0.554 5.50828 0.625001 5.39995 0.725001 5.29995L5.325 0.699952C5.50833 0.516619 5.74167 0.42495 6.025 0.424951C6.30833 0.424951 6.54167 0.516619 6.725 0.699952Z" fill="#262626"/>
</svg>
