<svg width="18" height="18" viewBox="0 0 18 18" fill="none" xmlns="http://www.w3.org/2000/svg">
<path fill-rule="evenodd" clip-rule="evenodd" d="M10.3573 16.0599L9.9055 16.8231C9.50286 17.5033 8.49702 17.5033 8.09438 16.8231L7.64263 16.0599C7.29223 15.4679 7.11703 15.1719 6.83562 15.0082C6.5542 14.8445 6.19989 14.8384 5.49127 14.8262C4.44514 14.8082 3.78903 14.7441 3.23878 14.5162C2.21783 14.0933 1.40669 13.2821 0.983795 12.2612C0.666626 11.4955 0.666626 10.5247 0.666626 8.58332V7.74999C0.666626 5.02213 0.666626 3.6582 1.28063 2.65625C1.62419 2.0956 2.09557 1.62422 2.65622 1.28066C3.65817 0.666656 5.0221 0.666656 7.74996 0.666656H10.25C12.9778 0.666656 14.3417 0.666656 15.3437 1.28066C15.9044 1.62422 16.3757 2.0956 16.7193 2.65625C17.3333 3.6582 17.3333 5.02213 17.3333 7.74999V8.58332C17.3333 10.5247 17.3333 11.4955 17.0161 12.2612C16.5932 13.2821 15.7821 14.0933 14.7611 14.5162C14.2109 14.7441 13.5548 14.8082 12.5086 14.8262C11.8 14.8384 11.4457 14.8445 11.1643 15.0082C10.8828 15.1719 10.7077 15.4679 10.3573 16.0599ZM5.66663 8.79166C5.32145 8.79166 5.04163 9.07148 5.04163 9.41666C5.04163 9.76184 5.32145 10.0417 5.66663 10.0417H10.25C10.5951 10.0417 10.875 9.76184 10.875 9.41666C10.875 9.07148 10.5951 8.79166 10.25 8.79166H5.66663ZM5.04163 6.49999C5.04163 6.15481 5.32145 5.87499 5.66663 5.87499H12.3333C12.6785 5.87499 12.9583 6.15481 12.9583 6.49999C12.9583 6.84517 12.6785 7.12499 12.3333 7.12499H5.66663C5.32145 7.12499 5.04163 6.84517 5.04163 6.49999Z" fill="#424242"/>
</svg>
