<svg width="16" height="16" viewBox="0 0 16 16" fill="none" xmlns="http://www.w3.org/2000/svg">
<path fill-rule="evenodd" clip-rule="evenodd" d="M6.97368 0.833336H9.02616C10.0951 0.833332 10.9331 0.833328 11.6025 0.896981C12.2849 0.961861 12.8436 1.09638 13.3362 1.39822C13.852 1.7143 14.2856 2.14796 14.6017 2.66376C14.9035 3.15631 15.0381 3.71504 15.1029 4.39741C15.1666 5.06686 15.1666 5.90484 15.1666 6.97375V7.68523C15.1666 8.44609 15.1666 9.04265 15.1337 9.52456C15.1003 10.0149 15.0311 10.4229 14.8748 10.8003C14.4857 11.7396 13.7395 12.4858 12.8002 12.8749C12.2636 13.0972 11.6523 13.1465 10.8155 13.1609C10.5227 13.1659 10.3373 13.1696 10.196 13.1853C10.0639 13.1999 10.0127 13.2214 9.98274 13.2388C9.95114 13.2572 9.90808 13.2907 9.83332 13.3932C9.75241 13.5042 9.66099 13.6577 9.51603 13.9026L9.15463 14.5131C8.63891 15.3844 7.3609 15.3844 6.84518 14.5131L6.48378 13.9026C6.33882 13.6577 6.2474 13.5042 6.16649 13.3932C6.09173 13.2907 6.04867 13.2572 6.01707 13.2388C5.98711 13.2214 5.93591 13.1999 5.80384 13.1853C5.6625 13.1696 5.47709 13.1659 5.18436 13.1609C4.3475 13.1465 3.73628 13.0972 3.19963 12.8749C2.26036 12.4858 1.51411 11.7396 1.12505 10.8003C0.968738 10.4229 0.899583 10.0149 0.866129 9.52456C0.833248 9.04265 0.83325 8.44609 0.833252 7.68523L0.833252 6.97377C0.833248 5.90484 0.833244 5.06686 0.896897 4.39741C0.961777 3.71504 1.0963 3.15631 1.39813 2.66376C1.71421 2.14796 2.14788 1.7143 2.66367 1.39822C3.15622 1.09638 3.71496 0.961861 4.39732 0.896981C5.06678 0.833328 5.90476 0.833332 6.97368 0.833336ZM4.49198 1.89249C3.88281 1.95041 3.49519 2.06149 3.18617 2.25086C2.80493 2.48448 2.4844 2.80502 2.25077 3.18626C2.06141 3.49527 1.95033 3.88289 1.89241 4.49206C1.83378 5.10867 1.83325 5.89918 1.83325 7V7.66667C1.83325 8.45008 1.83352 9.0126 1.86381 9.45649C1.89379 9.89588 1.9515 10.1824 2.04893 10.4176C2.33649 11.1119 2.88807 11.6634 3.58232 11.951C3.92607 12.0934 4.36463 12.1466 5.20158 12.161L5.2228 12.1614C5.48813 12.166 5.72064 12.17 5.9139 12.1914C6.12156 12.2144 6.32465 12.2608 6.51983 12.3744C6.71335 12.4869 6.85294 12.6373 6.97462 12.8042C7.08707 12.9585 7.20262 13.1538 7.3335 13.3749L7.70573 14.0038C7.83424 14.2209 8.16557 14.2209 8.29408 14.0038L8.66631 13.3749C8.79719 13.1538 8.91274 12.9585 9.02518 12.8042C9.14687 12.6373 9.28645 12.4869 9.47998 12.3744C9.67515 12.2608 9.87825 12.2144 10.0859 12.1914C10.2792 12.17 10.5117 12.166 10.777 12.1614L10.7982 12.161C11.6352 12.1466 12.0738 12.0934 12.4175 11.951C13.1118 11.6634 13.6633 11.1119 13.9509 10.4176C14.0483 10.1824 14.106 9.89588 14.136 9.45649C14.1663 9.0126 14.1666 8.45008 14.1666 7.66667V7C14.1666 5.89918 14.1661 5.10867 14.1074 4.49206C14.0495 3.88289 13.9384 3.49527 13.7491 3.18626C13.5154 2.80502 13.1949 2.48448 12.8137 2.25086C12.5046 2.06149 12.117 1.95041 11.5079 1.89249C10.8913 1.83386 10.1007 1.83334 8.99992 1.83334H6.99992C5.89909 1.83334 5.10859 1.83386 4.49198 1.89249Z" fill="#454545"/>
</svg>
