<svg width="16" height="16" viewBox="0 0 16 16" fill="none" xmlns="http://www.w3.org/2000/svg">
<g clip-path="url(#clip0_1_496)">
<path fill-rule="evenodd" clip-rule="evenodd" d="M6.9738 0.833336H9.02628C10.0952 0.833332 10.9332 0.833328 11.6026 0.896981C12.285 0.961861 12.8437 1.09638 13.3363 1.39822C13.8521 1.7143 14.2857 2.14796 14.6018 2.66376C14.9037 3.15631 15.0382 3.71504 15.1031 4.39741C15.1667 5.06686 15.1667 5.90484 15.1667 6.97375V7.68523C15.1667 8.44609 15.1667 9.04265 15.1338 9.52456C15.1004 10.0149 15.0312 10.4229 14.8749 10.8003C14.4859 11.7396 13.7396 12.4858 12.8003 12.8749C12.2637 13.0972 11.6524 13.1465 10.8156 13.1609C10.5228 13.1659 10.3374 13.1696 10.1961 13.1853C10.064 13.1999 10.0128 13.2214 9.98287 13.2388C9.95126 13.2572 9.9082 13.2907 9.83344 13.3932C9.75254 13.5042 9.66112 13.6577 9.51615 13.9026L9.15475 14.5131C8.63904 15.3844 7.36102 15.3844 6.8453 14.5131L6.4839 13.9026C6.33894 13.6577 6.24752 13.5042 6.16661 13.3932C6.09185 13.2907 6.04879 13.2572 6.01719 13.2388C5.98723 13.2214 5.93603 13.1999 5.80396 13.1853C5.66262 13.1696 5.47721 13.1659 5.18448 13.1609C4.34762 13.1465 3.7364 13.0972 3.19975 12.8749C2.26048 12.4858 1.51423 11.7396 1.12517 10.8003C0.96886 10.4229 0.899705 10.0149 0.866251 9.52456C0.83337 9.04265 0.833372 8.44609 0.833374 7.68523L0.833374 6.97377C0.83337 5.90484 0.833367 5.06686 0.897019 4.39741C0.961899 3.71504 1.09642 3.15631 1.39825 2.66376C1.71433 2.14796 2.148 1.7143 2.6638 1.39822C3.15634 1.09638 3.71508 0.961861 4.39745 0.896981C5.0669 0.833328 5.90488 0.833332 6.9738 0.833336ZM4.4921 1.89249C3.88293 1.95041 3.49531 2.06149 3.18629 2.25086C2.80505 2.48448 2.48452 2.80502 2.25089 3.18626C2.06153 3.49527 1.95045 3.88289 1.89253 4.49206C1.8339 5.10867 1.83337 5.89918 1.83337 7V7.66667C1.83337 8.45008 1.83364 9.0126 1.86393 9.45649C1.89391 9.89588 1.95162 10.1824 2.04905 10.4176C2.33661 11.1119 2.88819 11.6634 3.58244 11.951C3.9262 12.0934 4.36475 12.1466 5.20171 12.161L5.22292 12.1614C5.48825 12.166 5.72077 12.17 5.91402 12.1914C6.12168 12.2144 6.32478 12.2608 6.51995 12.3744C6.71347 12.4869 6.85306 12.6373 6.97475 12.8042C7.08719 12.9585 7.20274 13.1538 7.33362 13.3749L7.70585 14.0038C7.83436 14.2209 8.16569 14.2209 8.2942 14.0038L8.66644 13.3749C8.79731 13.1538 8.91287 12.9585 9.02531 12.8042C9.14699 12.6373 9.28658 12.4869 9.4801 12.3744C9.67528 12.2608 9.87837 12.2144 10.086 12.1914C10.2793 12.17 10.5118 12.166 10.7771 12.1614L10.7983 12.161C11.6353 12.1466 12.0739 12.0934 12.4176 11.951C13.1119 11.6634 13.6635 11.1119 13.951 10.4176C14.0485 10.1824 14.1062 9.89588 14.1361 9.45649C14.1664 9.0126 14.1667 8.45008 14.1667 7.66667V7C14.1667 5.89918 14.1662 5.10867 14.1076 4.49206C14.0496 3.88289 13.9386 3.49527 13.7492 3.18626C13.5156 2.80502 13.195 2.48448 12.8138 2.25086C12.5048 2.06149 12.1172 1.95041 11.508 1.89249C10.8914 1.83386 10.1009 1.83334 9.00004 1.83334H7.00004C5.89922 1.83334 5.10871 1.83386 4.4921 1.89249ZM4.83337 6C4.83337 5.72386 5.05723 5.5 5.33337 5.5H10.6667C10.9428 5.5 11.1667 5.72386 11.1667 6C11.1667 6.27614 10.9428 6.5 10.6667 6.5H5.33337C5.05723 6.5 4.83337 6.27614 4.83337 6ZM4.83337 8.33334C4.83337 8.05719 5.05723 7.83334 5.33337 7.83334H9.00004C9.27618 7.83334 9.50004 8.05719 9.50004 8.33334C9.50004 8.60948 9.27618 8.83334 9.00004 8.83334H5.33337C5.05723 8.83334 4.83337 8.60948 4.83337 8.33334Z" fill="#454545"/>
</g>
<defs>
<clipPath id="clip0_1_496">
<rect width="16" height="16" fill="white"/>
</clipPath>
</defs>
</svg>
